# xmcd
#
# Track frame offsets: 
#        150
#        23614
#        45212
#        52225
#        70433
#        90416
#        109469
#        131334
#        172960
#        195923
#        221361
#        233491
#        258184
#        281895
#
# Disc length: 4275 seconds
#
# Revision: 0
# Processed by: cddbd v1.5.1PL0 Copyright (c) Steve Scherf et al.
# Submitted via: ExactAudioCopy v0.95a3
#
DISCID=b810b10e
DTITLE=Prince - Vienna 29.5.1987
DYEAR=1900
DGENRE=
TTITLE0=Sign 'O' The Times
TTITLE1=Play In The Sunshine
TTITLE2=Little Red Corvette
TTITLE3=Housequake
TTITLE4=The Ballad Of Dorothy Parker -- 4
TTITLE5=Girls and Boys
TTITLE6=Slow Love
TTITLE7=I Could Never Take The Place Of Your Man
TTITLE8=If I Was Your Girlfriend
TTITLE9=Let's Go Crazy
TTITLE10=When Doves Cry
TTITLE11=Purple Rain
TTITLE12=1999
TTITLE13=Forever In My Life
EXTD=
EXTT0=
EXTT1=
EXTT2=
EXTT3=
EXTT4=
EXTT5=
EXTT6=
EXTT7=
EXTT8=
EXTT9=
EXTT10=
EXTT11=
EXTT12=
EXTT13=
PLAYORDER=
